<mxfile host="app.diagrams.net" modified="2023-12-08T11:58:41.140Z" agent="Mozilla/5.0 (Windows NT 10.0; Win64; x64) AppleWebKit/537.36 (KHTML, like Gecko) Chrome/119.0.0.0 Safari/537.36 Edg/119.0.0.0" etag="jHQNLzDwiduh4Xnm3LF5" version="22.1.7" type="github">
  <diagram name="Page-1" id="c4acf3e9-155e-7222-9cf6-157b1a14988f">
    <mxGraphModel dx="2453" dy="1423" grid="0" gridSize="10" guides="1" tooltips="1" connect="1" arrows="1" fold="1" page="0" pageScale="1" pageWidth="850" pageHeight="1100" background="none" math="0" shadow="0">
      <root>
        <mxCell id="0" />
        <mxCell id="1" parent="0" />
        <mxCell id="OZuqmoxS4hGVeMsFbTug-1" value="&lt;h1&gt;ADM for ch20&lt;/h1&gt;&lt;p&gt;This is the ADM for chapter 20: Designing an Architecture&lt;/p&gt;" style="text;html=1;strokeColor=none;fillColor=none;spacing=5;spacingTop=-20;whiteSpace=wrap;overflow=hidden;rounded=0;" parent="1" vertex="1">
          <mxGeometry x="320" y="203" width="315" height="120" as="geometry" />
        </mxCell>
        <mxCell id="OZuqmoxS4hGVeMsFbTug-35" value="Utility Tree" style="swimlane;fontStyle=0;childLayout=stackLayout;horizontal=1;startSize=26;fillColor=none;horizontalStack=0;resizeParent=1;resizeParentMax=0;resizeLast=0;collapsible=1;marginBottom=0;whiteSpace=wrap;html=1;" parent="1" vertex="1">
          <mxGeometry x="320" y="380" width="180" height="100" as="geometry" />
        </mxCell>
        <mxCell id="Bf2Zrh9VJoYy281yFuav-2" value="Attribute-Driven Design" style="swimlane;fontStyle=0;childLayout=stackLayout;horizontal=1;startSize=26;fillColor=none;horizontalStack=0;resizeParent=1;resizeParentMax=0;resizeLast=0;collapsible=1;marginBottom=0;whiteSpace=wrap;html=1;" parent="1" vertex="1">
          <mxGeometry x="687.17" y="384" width="275.83" height="90" as="geometry" />
        </mxCell>
        <mxCell id="Bf2Zrh9VJoYy281yFuav-4" value="" style="endArrow=none;html=1;rounded=0;entryX=0;entryY=0.5;entryDx=0;entryDy=0;" parent="1" target="Bf2Zrh9VJoYy281yFuav-2" edge="1">
          <mxGeometry width="50" height="50" relative="1" as="geometry">
            <mxPoint x="500.1700000000001" y="429" as="sourcePoint" />
            <mxPoint x="629.1700000000003" y="429.15599999999995" as="targetPoint" />
          </mxGeometry>
        </mxCell>
        <mxCell id="Bf2Zrh9VJoYy281yFuav-6" value="1..*" style="edgeLabel;resizable=0;html=1;align=right;verticalAlign=bottom;" parent="1" connectable="0" vertex="1">
          <mxGeometry x="680.1698969700078" y="428.99999897428836" as="geometry" />
        </mxCell>
        <mxCell id="8VK9so_CP51kFQA9M_FP-1" value="" style="endArrow=none;html=1;rounded=0;" parent="1" edge="1">
          <mxGeometry width="50" height="50" relative="1" as="geometry">
            <mxPoint x="962" y="425" as="sourcePoint" />
            <mxPoint x="1117" y="425" as="targetPoint" />
          </mxGeometry>
        </mxCell>
        <mxCell id="8VK9so_CP51kFQA9M_FP-3" value="" style="endArrow=none;html=1;rounded=0;" parent="1" edge="1">
          <mxGeometry width="50" height="50" relative="1" as="geometry">
            <mxPoint x="1116" y="1137.4444444444443" as="sourcePoint" />
            <mxPoint x="1116" y="485" as="targetPoint" />
          </mxGeometry>
        </mxCell>
        <mxCell id="8VK9so_CP51kFQA9M_FP-4" value="" style="endArrow=none;html=1;rounded=0;" parent="1" edge="1">
          <mxGeometry width="50" height="50" relative="1" as="geometry">
            <mxPoint x="1118" y="353" as="sourcePoint" />
            <mxPoint x="1198" y="353" as="targetPoint" />
          </mxGeometry>
        </mxCell>
        <mxCell id="8VK9so_CP51kFQA9M_FP-5" value="Choose One of More Design Concepts That Satisfy the Selected Drivers" style="swimlane;fontStyle=0;childLayout=stackLayout;horizontal=1;startSize=27;fillColor=none;horizontalStack=0;resizeParent=1;resizeParentMax=0;resizeLast=0;collapsible=1;marginBottom=0;whiteSpace=wrap;html=1;" parent="1" vertex="1">
          <mxGeometry x="1198" y="327" width="242" height="52" as="geometry" />
        </mxCell>
        <mxCell id="8VK9so_CP51kFQA9M_FP-10" value="" style="endArrow=none;html=1;rounded=0;" parent="1" edge="1">
          <mxGeometry width="50" height="50" relative="1" as="geometry">
            <mxPoint x="1120" y="967" as="sourcePoint" />
            <mxPoint x="1200" y="967" as="targetPoint" />
          </mxGeometry>
        </mxCell>
        <mxCell id="8VK9so_CP51kFQA9M_FP-11" value="Sketch Views and Record Design Decisions" style="swimlane;fontStyle=0;childLayout=stackLayout;horizontal=1;startSize=26;fillColor=none;horizontalStack=0;resizeParent=1;resizeParentMax=0;resizeLast=0;collapsible=1;marginBottom=0;whiteSpace=wrap;html=1;" parent="1" vertex="1">
          <mxGeometry x="1200" y="941" width="267" height="52" as="geometry" />
        </mxCell>
        <mxCell id="8VK9so_CP51kFQA9M_FP-12" value="xxx" style="text;strokeColor=none;fillColor=none;align=left;verticalAlign=top;spacingLeft=4;spacingRight=4;overflow=hidden;rotatable=0;points=[[0,0.5],[1,0.5]];portConstraint=eastwest;whiteSpace=wrap;html=1;" parent="8VK9so_CP51kFQA9M_FP-11" vertex="1">
          <mxGeometry y="26" width="267" height="26" as="geometry" />
        </mxCell>
        <mxCell id="8VK9so_CP51kFQA9M_FP-13" value="1" style="edgeLabel;resizable=0;html=1;align=right;verticalAlign=bottom;" parent="1" connectable="0" vertex="1">
          <mxGeometry x="979.9998969700077" y="421.99999897428836" as="geometry" />
        </mxCell>
        <mxCell id="8VK9so_CP51kFQA9M_FP-45" value="capture" style="edgeLabel;html=1;align=center;verticalAlign=middle;resizable=0;points=[];" parent="1" vertex="1" connectable="0">
          <mxGeometry x="590.1724316431201" y="411.9979665246439" as="geometry" />
        </mxCell>
        <mxCell id="9lrhff4a6AsnfSLG2jbU-1" value="has" style="edgeLabel;html=1;align=center;verticalAlign=middle;resizable=0;points=[];" parent="1" vertex="1" connectable="0">
          <mxGeometry x="1077.0024316431202" y="352.9979665246439" as="geometry">
            <mxPoint x="-31" y="58" as="offset" />
          </mxGeometry>
        </mxCell>
        <mxCell id="9lrhff4a6AsnfSLG2jbU-2" value="Instantiate Architectural Elements, Allocate Responsibilities, and Define Interfaces" style="swimlane;fontStyle=0;childLayout=stackLayout;horizontal=1;startSize=26;fillColor=none;horizontalStack=0;resizeParent=1;resizeParentMax=0;resizeLast=0;collapsible=1;marginBottom=0;whiteSpace=wrap;html=1;" parent="1" vertex="1">
          <mxGeometry x="1196" y="599" width="251" height="52" as="geometry" />
        </mxCell>
        <mxCell id="9lrhff4a6AsnfSLG2jbU-3" value="xxx" style="text;strokeColor=none;fillColor=none;align=left;verticalAlign=top;spacingLeft=4;spacingRight=4;overflow=hidden;rotatable=0;points=[[0,0.5],[1,0.5]];portConstraint=eastwest;whiteSpace=wrap;html=1;" parent="9lrhff4a6AsnfSLG2jbU-2" vertex="1">
          <mxGeometry y="26" width="251" height="26" as="geometry" />
        </mxCell>
        <mxCell id="9lrhff4a6AsnfSLG2jbU-5" value="" style="endArrow=none;html=1;rounded=0;entryX=-0.003;entryY=0.418;entryDx=0;entryDy=0;entryPerimeter=0;" parent="1" target="9lrhff4a6AsnfSLG2jbU-2" edge="1">
          <mxGeometry width="50" height="50" relative="1" as="geometry">
            <mxPoint x="1117" y="621" as="sourcePoint" />
            <mxPoint x="1143" y="575" as="targetPoint" />
          </mxGeometry>
        </mxCell>
        <mxCell id="9lrhff4a6AsnfSLG2jbU-32" value="1..*" style="edgeLabel;resizable=0;html=1;align=right;verticalAlign=bottom;" parent="1" connectable="0" vertex="1">
          <mxGeometry x="522.9998969700079" y="426.99999897428836" as="geometry" />
        </mxCell>
        <mxCell id="BTqThTdDFxi0YbiNSHeH-1" value="" style="endArrow=none;html=1;rounded=0;" edge="1" parent="1">
          <mxGeometry width="50" height="50" relative="1" as="geometry">
            <mxPoint x="1116" y="386" as="sourcePoint" />
            <mxPoint x="1116" y="107" as="targetPoint" />
          </mxGeometry>
        </mxCell>
        <mxCell id="BTqThTdDFxi0YbiNSHeH-2" value="" style="endArrow=none;html=1;rounded=0;" edge="1" parent="1">
          <mxGeometry width="50" height="50" relative="1" as="geometry">
            <mxPoint x="1116" y="108.5" as="sourcePoint" />
            <mxPoint x="1196" y="108.5" as="targetPoint" />
          </mxGeometry>
        </mxCell>
        <mxCell id="BTqThTdDFxi0YbiNSHeH-3" value="Review Inputs" style="swimlane;fontStyle=0;childLayout=stackLayout;horizontal=1;startSize=26;fillColor=none;horizontalStack=0;resizeParent=1;resizeParentMax=0;resizeLast=0;collapsible=1;marginBottom=0;whiteSpace=wrap;html=1;" vertex="1" parent="1">
          <mxGeometry x="1197.0000000000002" y="83" width="180" height="52" as="geometry" />
        </mxCell>
        <mxCell id="BTqThTdDFxi0YbiNSHeH-4" value="constraints, concerns...." style="text;strokeColor=none;fillColor=none;align=left;verticalAlign=top;spacingLeft=4;spacingRight=4;overflow=hidden;rotatable=0;points=[[0,0.5],[1,0.5]];portConstraint=eastwest;whiteSpace=wrap;html=1;" vertex="1" parent="BTqThTdDFxi0YbiNSHeH-3">
          <mxGeometry y="26" width="180" height="26" as="geometry" />
        </mxCell>
        <mxCell id="BTqThTdDFxi0YbiNSHeH-5" value="" style="endArrow=none;html=1;rounded=0;" edge="1" parent="1">
          <mxGeometry width="50" height="50" relative="1" as="geometry">
            <mxPoint x="1118" y="278.40999999999997" as="sourcePoint" />
            <mxPoint x="1198" y="278.40999999999997" as="targetPoint" />
          </mxGeometry>
        </mxCell>
        <mxCell id="BTqThTdDFxi0YbiNSHeH-6" value="Choose One of More Elements of the System to Refine" style="swimlane;fontStyle=0;childLayout=stackLayout;horizontal=1;startSize=26;fillColor=none;horizontalStack=0;resizeParent=1;resizeParentMax=0;resizeLast=0;collapsible=1;marginBottom=0;whiteSpace=wrap;html=1;" vertex="1" parent="1">
          <mxGeometry x="1198" y="253" width="184" height="52" as="geometry" />
        </mxCell>
        <mxCell id="BTqThTdDFxi0YbiNSHeH-7" value="xxx" style="text;strokeColor=none;fillColor=none;align=left;verticalAlign=top;spacingLeft=4;spacingRight=4;overflow=hidden;rotatable=0;points=[[0,0.5],[1,0.5]];portConstraint=eastwest;whiteSpace=wrap;html=1;" vertex="1" parent="BTqThTdDFxi0YbiNSHeH-6">
          <mxGeometry y="26" width="184" height="26" as="geometry" />
        </mxCell>
        <mxCell id="BTqThTdDFxi0YbiNSHeH-8" value="Establish Iteration Goal by Selecting Drivers" style="swimlane;fontStyle=0;childLayout=stackLayout;horizontal=1;startSize=26;fillColor=none;horizontalStack=0;resizeParent=1;resizeParentMax=0;resizeLast=0;collapsible=1;marginBottom=0;whiteSpace=wrap;html=1;" vertex="1" parent="1">
          <mxGeometry x="1196.5" y="166" width="181" height="52" as="geometry" />
        </mxCell>
        <mxCell id="BTqThTdDFxi0YbiNSHeH-9" value="xxx" style="text;strokeColor=none;fillColor=none;align=left;verticalAlign=top;spacingLeft=4;spacingRight=4;overflow=hidden;rotatable=0;points=[[0,0.5],[1,0.5]];portConstraint=eastwest;whiteSpace=wrap;html=1;" vertex="1" parent="BTqThTdDFxi0YbiNSHeH-8">
          <mxGeometry y="26" width="181" height="26" as="geometry" />
        </mxCell>
        <mxCell id="BTqThTdDFxi0YbiNSHeH-11" value="" style="endArrow=none;html=1;rounded=0;entryX=-0.003;entryY=0.418;entryDx=0;entryDy=0;entryPerimeter=0;" edge="1" parent="1" target="BTqThTdDFxi0YbiNSHeH-8">
          <mxGeometry width="50" height="50" relative="1" as="geometry">
            <mxPoint x="1116" y="188" as="sourcePoint" />
            <mxPoint x="1142" y="251" as="targetPoint" />
          </mxGeometry>
        </mxCell>
        <mxCell id="BTqThTdDFxi0YbiNSHeH-16" value="" style="endArrow=none;html=1;rounded=0;" edge="1" parent="1">
          <mxGeometry width="50" height="50" relative="1" as="geometry">
            <mxPoint x="1116" y="486" as="sourcePoint" />
            <mxPoint x="1116" y="385" as="targetPoint" />
          </mxGeometry>
        </mxCell>
        <mxCell id="BTqThTdDFxi0YbiNSHeH-17" value="1" style="edgeLabel;resizable=0;html=1;align=right;verticalAlign=bottom;" connectable="0" vertex="1" parent="1">
          <mxGeometry x="1192.9998969700077" y="105.99999897428836" as="geometry" />
        </mxCell>
        <mxCell id="BTqThTdDFxi0YbiNSHeH-18" value="1" style="edgeLabel;resizable=0;html=1;align=right;verticalAlign=bottom;" connectable="0" vertex="1" parent="1">
          <mxGeometry x="1185.9998969700077" y="185.99999897428836" as="geometry" />
        </mxCell>
        <mxCell id="BTqThTdDFxi0YbiNSHeH-19" value="1" style="edgeLabel;resizable=0;html=1;align=right;verticalAlign=bottom;" connectable="0" vertex="1" parent="1">
          <mxGeometry x="1191.9998969700077" y="266.99999897428836" as="geometry" />
        </mxCell>
        <mxCell id="BTqThTdDFxi0YbiNSHeH-21" value="1" style="edgeLabel;resizable=0;html=1;align=right;verticalAlign=bottom;" connectable="0" vertex="1" parent="1">
          <mxGeometry x="1189.9998969700077" y="618.9999989742884" as="geometry" />
        </mxCell>
        <mxCell id="BTqThTdDFxi0YbiNSHeH-22" value="1" style="edgeLabel;resizable=0;html=1;align=right;verticalAlign=bottom;" connectable="0" vertex="1" parent="1">
          <mxGeometry x="1210.9998969700077" y="905.9999989742884" as="geometry">
            <mxPoint x="-22" y="50" as="offset" />
          </mxGeometry>
        </mxCell>
        <mxCell id="BTqThTdDFxi0YbiNSHeH-23" value="" style="endArrow=none;html=1;rounded=0;" edge="1" parent="1">
          <mxGeometry width="50" height="50" relative="1" as="geometry">
            <mxPoint x="1116" y="1136" as="sourcePoint" />
            <mxPoint x="1196" y="1136" as="targetPoint" />
          </mxGeometry>
        </mxCell>
        <mxCell id="BTqThTdDFxi0YbiNSHeH-24" value="Perform Analysis of Current Design and Review Iteration Goal and Achievement of Design Purpose" style="swimlane;fontStyle=0;childLayout=stackLayout;horizontal=1;startSize=26;fillColor=none;horizontalStack=0;resizeParent=1;resizeParentMax=0;resizeLast=0;collapsible=1;marginBottom=0;whiteSpace=wrap;html=1;" vertex="1" parent="1">
          <mxGeometry x="1196" y="1110" width="288" height="51" as="geometry" />
        </mxCell>
        <mxCell id="BTqThTdDFxi0YbiNSHeH-25" value="xxx" style="text;strokeColor=none;fillColor=none;align=left;verticalAlign=top;spacingLeft=4;spacingRight=4;overflow=hidden;rotatable=0;points=[[0,0.5],[1,0.5]];portConstraint=eastwest;whiteSpace=wrap;html=1;" vertex="1" parent="BTqThTdDFxi0YbiNSHeH-24">
          <mxGeometry y="26" width="288" height="25" as="geometry" />
        </mxCell>
        <mxCell id="BTqThTdDFxi0YbiNSHeH-26" value="1" style="edgeLabel;resizable=0;html=1;align=right;verticalAlign=bottom;" connectable="0" vertex="1" parent="1">
          <mxGeometry x="1210.9998969700077" y="1083.9999989742882" as="geometry">
            <mxPoint x="-22" y="50" as="offset" />
          </mxGeometry>
        </mxCell>
        <mxCell id="BTqThTdDFxi0YbiNSHeH-28" value="" style="endArrow=none;html=1;rounded=0;" edge="1" parent="1">
          <mxGeometry width="50" height="50" relative="1" as="geometry">
            <mxPoint x="1556" y="452" as="sourcePoint" />
            <mxPoint x="1556" y="261" as="targetPoint" />
          </mxGeometry>
        </mxCell>
        <mxCell id="BTqThTdDFxi0YbiNSHeH-29" value="" style="endArrow=none;html=1;rounded=0;" edge="1" parent="1">
          <mxGeometry width="50" height="50" relative="1" as="geometry">
            <mxPoint x="1556" y="355" as="sourcePoint" />
            <mxPoint x="1636" y="355" as="targetPoint" />
          </mxGeometry>
        </mxCell>
        <mxCell id="BTqThTdDFxi0YbiNSHeH-30" value="Selection of Design Concepts" style="swimlane;fontStyle=0;childLayout=stackLayout;horizontal=1;startSize=26;fillColor=none;horizontalStack=0;resizeParent=1;resizeParentMax=0;resizeLast=0;collapsible=1;marginBottom=0;whiteSpace=wrap;html=1;" vertex="1" parent="1">
          <mxGeometry x="1636.0000000000002" y="329" width="180" height="52" as="geometry" />
        </mxCell>
        <mxCell id="BTqThTdDFxi0YbiNSHeH-31" value="xxx" style="text;strokeColor=none;fillColor=none;align=left;verticalAlign=top;spacingLeft=4;spacingRight=4;overflow=hidden;rotatable=0;points=[[0,0.5],[1,0.5]];portConstraint=eastwest;whiteSpace=wrap;html=1;" vertex="1" parent="BTqThTdDFxi0YbiNSHeH-30">
          <mxGeometry y="26" width="180" height="26" as="geometry" />
        </mxCell>
        <mxCell id="BTqThTdDFxi0YbiNSHeH-32" value="" style="endArrow=none;html=1;rounded=0;" edge="1" parent="1">
          <mxGeometry width="50" height="50" relative="1" as="geometry">
            <mxPoint x="1556" y="453" as="sourcePoint" />
            <mxPoint x="1636" y="453" as="targetPoint" />
          </mxGeometry>
        </mxCell>
        <mxCell id="BTqThTdDFxi0YbiNSHeH-33" value="Creation of Prototypes" style="swimlane;fontStyle=0;childLayout=stackLayout;horizontal=1;startSize=26;fillColor=none;horizontalStack=0;resizeParent=1;resizeParentMax=0;resizeLast=0;collapsible=1;marginBottom=0;whiteSpace=wrap;html=1;" vertex="1" parent="1">
          <mxGeometry x="1636.0000000000002" y="428" width="180" height="52" as="geometry" />
        </mxCell>
        <mxCell id="BTqThTdDFxi0YbiNSHeH-34" value="xxx" style="text;strokeColor=none;fillColor=none;align=left;verticalAlign=top;spacingLeft=4;spacingRight=4;overflow=hidden;rotatable=0;points=[[0,0.5],[1,0.5]];portConstraint=eastwest;whiteSpace=wrap;html=1;" vertex="1" parent="BTqThTdDFxi0YbiNSHeH-33">
          <mxGeometry y="26" width="180" height="26" as="geometry" />
        </mxCell>
        <mxCell id="BTqThTdDFxi0YbiNSHeH-35" value="1..*" style="edgeLabel;resizable=0;html=1;align=right;verticalAlign=bottom;" connectable="0" vertex="1" parent="1">
          <mxGeometry x="1630.9998969700077" y="349.99999897428836" as="geometry" />
        </mxCell>
        <mxCell id="BTqThTdDFxi0YbiNSHeH-36" value="1..*" style="edgeLabel;resizable=0;html=1;align=right;verticalAlign=bottom;" connectable="0" vertex="1" parent="1">
          <mxGeometry x="1627.9998969700077" y="446.99999897428836" as="geometry" />
        </mxCell>
        <mxCell id="BTqThTdDFxi0YbiNSHeH-37" value="" style="endArrow=none;html=1;rounded=0;" edge="1" parent="1">
          <mxGeometry width="50" height="50" relative="1" as="geometry">
            <mxPoint x="1556" y="262" as="sourcePoint" />
            <mxPoint x="1636" y="262" as="targetPoint" />
          </mxGeometry>
        </mxCell>
        <mxCell id="BTqThTdDFxi0YbiNSHeH-38" value="Identification of Design Concepts" style="swimlane;fontStyle=0;childLayout=stackLayout;horizontal=1;startSize=26;fillColor=none;horizontalStack=0;resizeParent=1;resizeParentMax=0;resizeLast=0;collapsible=1;marginBottom=0;whiteSpace=wrap;html=1;" vertex="1" parent="1">
          <mxGeometry x="1636" y="236" width="209" height="52" as="geometry" />
        </mxCell>
        <mxCell id="BTqThTdDFxi0YbiNSHeH-39" value="Leverage existing best practices..." style="text;strokeColor=none;fillColor=none;align=left;verticalAlign=top;spacingLeft=4;spacingRight=4;overflow=hidden;rotatable=0;points=[[0,0.5],[1,0.5]];portConstraint=eastwest;whiteSpace=wrap;html=1;" vertex="1" parent="BTqThTdDFxi0YbiNSHeH-38">
          <mxGeometry y="26" width="209" height="26" as="geometry" />
        </mxCell>
        <mxCell id="BTqThTdDFxi0YbiNSHeH-40" value="1..*" style="edgeLabel;resizable=0;html=1;align=right;verticalAlign=bottom;" connectable="0" vertex="1" parent="1">
          <mxGeometry x="1630.9998969700077" y="257.99999897428836" as="geometry" />
        </mxCell>
        <mxCell id="BTqThTdDFxi0YbiNSHeH-51" value="consist of" style="edgeLabel;html=1;align=center;verticalAlign=middle;resizable=0;points=[];" vertex="1" connectable="0" parent="1">
          <mxGeometry x="1538.0024316431202" y="281.9979665246439" as="geometry">
            <mxPoint x="-31" y="58" as="offset" />
          </mxGeometry>
        </mxCell>
        <mxCell id="BTqThTdDFxi0YbiNSHeH-53" value="" style="endArrow=none;html=1;rounded=0;exitX=1;exitY=0.5;exitDx=0;exitDy=0;" edge="1" parent="1">
          <mxGeometry width="50" height="50" relative="1" as="geometry">
            <mxPoint x="1442" y="354.6" as="sourcePoint" />
            <mxPoint x="1555" y="355" as="targetPoint" />
          </mxGeometry>
        </mxCell>
        <mxCell id="BTqThTdDFxi0YbiNSHeH-54" value="1..*" style="edgeLabel;resizable=0;html=1;align=right;verticalAlign=bottom;" connectable="0" vertex="1" parent="1">
          <mxGeometry x="704.9998969700079" y="326.99999897428836" as="geometry">
            <mxPoint x="481" y="23" as="offset" />
          </mxGeometry>
        </mxCell>
        <mxCell id="BTqThTdDFxi0YbiNSHeH-70" value="" style="endArrow=none;html=1;rounded=0;" edge="1" parent="1">
          <mxGeometry width="50" height="50" relative="1" as="geometry">
            <mxPoint x="1561" y="794" as="sourcePoint" />
            <mxPoint x="1561" y="532" as="targetPoint" />
          </mxGeometry>
        </mxCell>
        <mxCell id="BTqThTdDFxi0YbiNSHeH-71" value="" style="endArrow=none;html=1;rounded=0;" edge="1" parent="1">
          <mxGeometry width="50" height="50" relative="1" as="geometry">
            <mxPoint x="1561" y="626" as="sourcePoint" />
            <mxPoint x="1641" y="626" as="targetPoint" />
          </mxGeometry>
        </mxCell>
        <mxCell id="BTqThTdDFxi0YbiNSHeH-72" value="Associating Responsibilities and Identifying Properties" style="swimlane;fontStyle=0;childLayout=stackLayout;horizontal=1;startSize=26;fillColor=none;horizontalStack=0;resizeParent=1;resizeParentMax=0;resizeLast=0;collapsible=1;marginBottom=0;whiteSpace=wrap;html=1;" vertex="1" parent="1">
          <mxGeometry x="1641.0000000000002" y="600" width="180" height="52" as="geometry" />
        </mxCell>
        <mxCell id="BTqThTdDFxi0YbiNSHeH-73" value="xxx" style="text;strokeColor=none;fillColor=none;align=left;verticalAlign=top;spacingLeft=4;spacingRight=4;overflow=hidden;rotatable=0;points=[[0,0.5],[1,0.5]];portConstraint=eastwest;whiteSpace=wrap;html=1;" vertex="1" parent="BTqThTdDFxi0YbiNSHeH-72">
          <mxGeometry y="26" width="180" height="26" as="geometry" />
        </mxCell>
        <mxCell id="BTqThTdDFxi0YbiNSHeH-74" value="" style="endArrow=none;html=1;rounded=0;" edge="1" parent="1">
          <mxGeometry width="50" height="50" relative="1" as="geometry">
            <mxPoint x="1561" y="724" as="sourcePoint" />
            <mxPoint x="1641" y="724" as="targetPoint" />
          </mxGeometry>
        </mxCell>
        <mxCell id="BTqThTdDFxi0YbiNSHeH-75" value="Establishing Relationships between the Elements" style="swimlane;fontStyle=0;childLayout=stackLayout;horizontal=1;startSize=26;fillColor=none;horizontalStack=0;resizeParent=1;resizeParentMax=0;resizeLast=0;collapsible=1;marginBottom=0;whiteSpace=wrap;html=1;" vertex="1" parent="1">
          <mxGeometry x="1641.0000000000002" y="699" width="180" height="52" as="geometry" />
        </mxCell>
        <mxCell id="BTqThTdDFxi0YbiNSHeH-76" value="xxx" style="text;strokeColor=none;fillColor=none;align=left;verticalAlign=top;spacingLeft=4;spacingRight=4;overflow=hidden;rotatable=0;points=[[0,0.5],[1,0.5]];portConstraint=eastwest;whiteSpace=wrap;html=1;" vertex="1" parent="BTqThTdDFxi0YbiNSHeH-75">
          <mxGeometry y="26" width="180" height="26" as="geometry" />
        </mxCell>
        <mxCell id="BTqThTdDFxi0YbiNSHeH-77" value="1..*" style="edgeLabel;resizable=0;html=1;align=right;verticalAlign=bottom;" connectable="0" vertex="1" parent="1">
          <mxGeometry x="1635.9998969700077" y="620.9999989742884" as="geometry" />
        </mxCell>
        <mxCell id="BTqThTdDFxi0YbiNSHeH-78" value="1..*" style="edgeLabel;resizable=0;html=1;align=right;verticalAlign=bottom;" connectable="0" vertex="1" parent="1">
          <mxGeometry x="1632.9998969700077" y="717.9999989742884" as="geometry" />
        </mxCell>
        <mxCell id="BTqThTdDFxi0YbiNSHeH-79" value="" style="endArrow=none;html=1;rounded=0;" edge="1" parent="1">
          <mxGeometry width="50" height="50" relative="1" as="geometry">
            <mxPoint x="1561" y="533" as="sourcePoint" />
            <mxPoint x="1641" y="533" as="targetPoint" />
          </mxGeometry>
        </mxCell>
        <mxCell id="BTqThTdDFxi0YbiNSHeH-80" value="Instantiating Elements" style="swimlane;fontStyle=0;childLayout=stackLayout;horizontal=1;startSize=26;fillColor=none;horizontalStack=0;resizeParent=1;resizeParentMax=0;resizeLast=0;collapsible=1;marginBottom=0;whiteSpace=wrap;html=1;" vertex="1" parent="1">
          <mxGeometry x="1636" y="507" width="156" height="52" as="geometry" />
        </mxCell>
        <mxCell id="BTqThTdDFxi0YbiNSHeH-82" value="1..*" style="edgeLabel;resizable=0;html=1;align=right;verticalAlign=bottom;" connectable="0" vertex="1" parent="1">
          <mxGeometry x="1627.9998969700077" y="528.9999989742884" as="geometry" />
        </mxCell>
        <mxCell id="BTqThTdDFxi0YbiNSHeH-83" value="consist of" style="edgeLabel;html=1;align=center;verticalAlign=middle;resizable=0;points=[];" vertex="1" connectable="0" parent="1">
          <mxGeometry x="1543.0024316431202" y="552.997966524644" as="geometry">
            <mxPoint x="-31" y="58" as="offset" />
          </mxGeometry>
        </mxCell>
        <mxCell id="BTqThTdDFxi0YbiNSHeH-84" value="" style="endArrow=none;html=1;rounded=0;exitX=1;exitY=0.5;exitDx=0;exitDy=0;" edge="1" parent="1">
          <mxGeometry width="50" height="50" relative="1" as="geometry">
            <mxPoint x="1447" y="625.6" as="sourcePoint" />
            <mxPoint x="1560" y="626" as="targetPoint" />
          </mxGeometry>
        </mxCell>
        <mxCell id="BTqThTdDFxi0YbiNSHeH-85" value="" style="endArrow=none;html=1;rounded=0;" edge="1" parent="1">
          <mxGeometry width="50" height="50" relative="1" as="geometry">
            <mxPoint x="1561" y="792" as="sourcePoint" />
            <mxPoint x="1641" y="792" as="targetPoint" />
          </mxGeometry>
        </mxCell>
        <mxCell id="BTqThTdDFxi0YbiNSHeH-86" value="Defining Interfaces" style="swimlane;fontStyle=0;childLayout=stackLayout;horizontal=1;startSize=26;fillColor=none;horizontalStack=0;resizeParent=1;resizeParentMax=0;resizeLast=0;collapsible=1;marginBottom=0;whiteSpace=wrap;html=1;" vertex="1" parent="1">
          <mxGeometry x="1641.0000000000002" y="767" width="180" height="52" as="geometry" />
        </mxCell>
        <mxCell id="BTqThTdDFxi0YbiNSHeH-87" value="xxx" style="text;strokeColor=none;fillColor=none;align=left;verticalAlign=top;spacingLeft=4;spacingRight=4;overflow=hidden;rotatable=0;points=[[0,0.5],[1,0.5]];portConstraint=eastwest;whiteSpace=wrap;html=1;" vertex="1" parent="BTqThTdDFxi0YbiNSHeH-86">
          <mxGeometry y="26" width="180" height="26" as="geometry" />
        </mxCell>
        <mxCell id="BTqThTdDFxi0YbiNSHeH-88" value="1..*" style="edgeLabel;resizable=0;html=1;align=right;verticalAlign=bottom;" connectable="0" vertex="1" parent="1">
          <mxGeometry x="1632.9998969700077" y="785.9999989742884" as="geometry" />
        </mxCell>
        <mxCell id="BTqThTdDFxi0YbiNSHeH-89" value="" style="endArrow=none;html=1;rounded=0;" edge="1" parent="1">
          <mxGeometry width="50" height="50" relative="1" as="geometry">
            <mxPoint x="1561" y="934" as="sourcePoint" />
            <mxPoint x="1641" y="934" as="targetPoint" />
          </mxGeometry>
        </mxCell>
        <mxCell id="BTqThTdDFxi0YbiNSHeH-90" value="Recording Sketches of the Views" style="swimlane;fontStyle=0;childLayout=stackLayout;horizontal=1;startSize=26;fillColor=none;horizontalStack=0;resizeParent=1;resizeParentMax=0;resizeLast=0;collapsible=1;marginBottom=0;whiteSpace=wrap;html=1;" vertex="1" parent="1">
          <mxGeometry x="1641.0000000000002" y="909" width="180" height="52" as="geometry" />
        </mxCell>
        <mxCell id="BTqThTdDFxi0YbiNSHeH-91" value="xxx" style="text;strokeColor=none;fillColor=none;align=left;verticalAlign=top;spacingLeft=4;spacingRight=4;overflow=hidden;rotatable=0;points=[[0,0.5],[1,0.5]];portConstraint=eastwest;whiteSpace=wrap;html=1;" vertex="1" parent="BTqThTdDFxi0YbiNSHeH-90">
          <mxGeometry y="26" width="180" height="26" as="geometry" />
        </mxCell>
        <mxCell id="BTqThTdDFxi0YbiNSHeH-92" value="1..*" style="edgeLabel;resizable=0;html=1;align=right;verticalAlign=bottom;" connectable="0" vertex="1" parent="1">
          <mxGeometry x="1632.9998969700077" y="927.9999989742884" as="geometry" />
        </mxCell>
        <mxCell id="BTqThTdDFxi0YbiNSHeH-93" value="" style="endArrow=none;html=1;rounded=0;" edge="1" parent="1">
          <mxGeometry width="50" height="50" relative="1" as="geometry">
            <mxPoint x="1561" y="1002" as="sourcePoint" />
            <mxPoint x="1641" y="1002" as="targetPoint" />
          </mxGeometry>
        </mxCell>
        <mxCell id="BTqThTdDFxi0YbiNSHeH-94" value="Recording Design Decisions" style="swimlane;fontStyle=0;childLayout=stackLayout;horizontal=1;startSize=26;fillColor=none;horizontalStack=0;resizeParent=1;resizeParentMax=0;resizeLast=0;collapsible=1;marginBottom=0;whiteSpace=wrap;html=1;" vertex="1" parent="1">
          <mxGeometry x="1641.0000000000002" y="977" width="180" height="52" as="geometry" />
        </mxCell>
        <mxCell id="BTqThTdDFxi0YbiNSHeH-95" value="xxx" style="text;strokeColor=none;fillColor=none;align=left;verticalAlign=top;spacingLeft=4;spacingRight=4;overflow=hidden;rotatable=0;points=[[0,0.5],[1,0.5]];portConstraint=eastwest;whiteSpace=wrap;html=1;" vertex="1" parent="BTqThTdDFxi0YbiNSHeH-94">
          <mxGeometry y="26" width="180" height="26" as="geometry" />
        </mxCell>
        <mxCell id="BTqThTdDFxi0YbiNSHeH-96" value="1..*" style="edgeLabel;resizable=0;html=1;align=right;verticalAlign=bottom;" connectable="0" vertex="1" parent="1">
          <mxGeometry x="1632.9998969700077" y="995.9999989742884" as="geometry" />
        </mxCell>
        <mxCell id="BTqThTdDFxi0YbiNSHeH-98" value="" style="endArrow=none;html=1;rounded=0;" edge="1" parent="1">
          <mxGeometry width="50" height="50" relative="1" as="geometry">
            <mxPoint x="1561" y="1003" as="sourcePoint" />
            <mxPoint x="1561" y="934" as="targetPoint" />
          </mxGeometry>
        </mxCell>
        <mxCell id="BTqThTdDFxi0YbiNSHeH-99" value="" style="endArrow=none;html=1;rounded=0;exitX=1;exitY=0.5;exitDx=0;exitDy=0;" edge="1" parent="1" source="8VK9so_CP51kFQA9M_FP-11">
          <mxGeometry width="50" height="50" relative="1" as="geometry">
            <mxPoint x="1468" y="986" as="sourcePoint" />
            <mxPoint x="1561" y="967" as="targetPoint" />
          </mxGeometry>
        </mxCell>
        <mxCell id="BTqThTdDFxi0YbiNSHeH-100" value="" style="endArrow=none;html=1;rounded=0;" edge="1" parent="1">
          <mxGeometry width="50" height="50" relative="1" as="geometry">
            <mxPoint x="1578" y="1102.5" as="sourcePoint" />
            <mxPoint x="1658" y="1102.5" as="targetPoint" />
          </mxGeometry>
        </mxCell>
        <mxCell id="BTqThTdDFxi0YbiNSHeH-101" value="Use of an Architectural Backlog" style="swimlane;fontStyle=0;childLayout=stackLayout;horizontal=1;startSize=26;fillColor=none;horizontalStack=0;resizeParent=1;resizeParentMax=0;resizeLast=0;collapsible=1;marginBottom=0;whiteSpace=wrap;html=1;" vertex="1" parent="1">
          <mxGeometry x="1658.0000000000002" y="1077.5" width="180" height="52" as="geometry" />
        </mxCell>
        <mxCell id="BTqThTdDFxi0YbiNSHeH-102" value="creation of a prototype..." style="text;strokeColor=none;fillColor=none;align=left;verticalAlign=top;spacingLeft=4;spacingRight=4;overflow=hidden;rotatable=0;points=[[0,0.5],[1,0.5]];portConstraint=eastwest;whiteSpace=wrap;html=1;" vertex="1" parent="BTqThTdDFxi0YbiNSHeH-101">
          <mxGeometry y="26" width="180" height="26" as="geometry" />
        </mxCell>
        <mxCell id="BTqThTdDFxi0YbiNSHeH-103" value="1..*" style="edgeLabel;resizable=0;html=1;align=right;verticalAlign=bottom;" connectable="0" vertex="1" parent="1">
          <mxGeometry x="1649.9998969700077" y="1096.4999989742882" as="geometry" />
        </mxCell>
        <mxCell id="BTqThTdDFxi0YbiNSHeH-104" value="" style="endArrow=none;html=1;rounded=0;" edge="1" parent="1">
          <mxGeometry width="50" height="50" relative="1" as="geometry">
            <mxPoint x="1578" y="1170.5" as="sourcePoint" />
            <mxPoint x="1658" y="1170.5" as="targetPoint" />
          </mxGeometry>
        </mxCell>
        <mxCell id="BTqThTdDFxi0YbiNSHeH-105" value="Use of a Design Kanban Board" style="swimlane;fontStyle=0;childLayout=stackLayout;horizontal=1;startSize=26;fillColor=none;horizontalStack=0;resizeParent=1;resizeParentMax=0;resizeLast=0;collapsible=1;marginBottom=0;whiteSpace=wrap;html=1;" vertex="1" parent="1">
          <mxGeometry x="1658.0000000000002" y="1145.5" width="180" height="52" as="geometry" />
        </mxCell>
        <mxCell id="BTqThTdDFxi0YbiNSHeH-106" value="Not Yet Addressed..." style="text;strokeColor=none;fillColor=none;align=left;verticalAlign=top;spacingLeft=4;spacingRight=4;overflow=hidden;rotatable=0;points=[[0,0.5],[1,0.5]];portConstraint=eastwest;whiteSpace=wrap;html=1;" vertex="1" parent="BTqThTdDFxi0YbiNSHeH-105">
          <mxGeometry y="26" width="180" height="26" as="geometry" />
        </mxCell>
        <mxCell id="BTqThTdDFxi0YbiNSHeH-107" value="1..*" style="edgeLabel;resizable=0;html=1;align=right;verticalAlign=bottom;" connectable="0" vertex="1" parent="1">
          <mxGeometry x="1649.9998969700077" y="1164.4999989742882" as="geometry" />
        </mxCell>
        <mxCell id="BTqThTdDFxi0YbiNSHeH-108" value="" style="endArrow=none;html=1;rounded=0;" edge="1" parent="1">
          <mxGeometry width="50" height="50" relative="1" as="geometry">
            <mxPoint x="1578" y="1171.5" as="sourcePoint" />
            <mxPoint x="1578" y="1102.5" as="targetPoint" />
          </mxGeometry>
        </mxCell>
        <mxCell id="BTqThTdDFxi0YbiNSHeH-109" value="" style="endArrow=none;html=1;rounded=0;exitX=1;exitY=0.5;exitDx=0;exitDy=0;" edge="1" parent="1">
          <mxGeometry width="50" height="50" relative="1" as="geometry">
            <mxPoint x="1484" y="1135.5" as="sourcePoint" />
            <mxPoint x="1578" y="1135.5" as="targetPoint" />
          </mxGeometry>
        </mxCell>
      </root>
    </mxGraphModel>
  </diagram>
</mxfile>
